<?xml version="1.0" encoding="UTF-8" standalone="no"?>
<!DOCTYPE svg PUBLIC "-//W3C//DTD SVG 1.1//EN"
 "http://www.w3.org/Graphics/SVG/1.1/DTD/svg11.dtd">
<!-- Generated by graphviz version 2.49.3 (0)
 -->
<!-- Title: calligraphy Pages: 1 -->
<svg width="824pt" height="459pt"
 viewBox="0.00 0.00 824.00 459.00" xmlns="http://www.w3.org/2000/svg" xmlns:xlink="http://www.w3.org/1999/xlink">
<g id="graph0" class="graph" transform="scale(1 1) rotate(0) translate(4 455)">
<title>calligraphy</title>
<polygon fill="white" stroke="transparent" points="-4,4 -4,-455 820,-455 820,4 -4,4"/>
<g id="clust1" class="cluster">
<title>cluster_module_0</title>
<polygon fill="none" stroke="black" points="8,-8 8,-443 808,-443 808,-8 8,-8"/>
<text text-anchor="middle" x="408" y="-427.8" font-family="Times,serif" font-size="14.00">Calligraphy</text>
</g>
<g id="clust2" class="cluster">
<title>cluster_0_0</title>
</g>
<g id="clust3" class="cluster">
<title>cluster_0_1</title>
</g>
<g id="clust4" class="cluster">
<title>cluster_0_2</title>
</g>
<g id="clust5" class="cluster">
<title>cluster_0_3</title>
</g>
<g id="clust6" class="cluster">
<title>cluster_0_4</title>
</g>
<g id="clust7" class="cluster">
<title>cluster_0_5</title>
</g>
<g id="clust8" class="cluster">
<title>cluster_0_6</title>
</g>
<g id="clust9" class="cluster">
<title>cluster_0_7</title>
</g>
<g id="clust10" class="cluster">
<title>cluster_0_8</title>
</g>
<g id="clust11" class="cluster">
<title>cluster_0_9</title>
</g>
<g id="clust12" class="cluster">
<title>cluster_0_10</title>
</g>
<!-- 0&#45;&gt;23 -->
<g id="edge13" class="edge">
<title>0&#45;&gt;23</title>
<path fill="none" stroke="black" d="M605.22,-253.17C613.57,-240.64 623.37,-225.95 630.75,-214.88"/>
<polygon fill="black" stroke="black" points="602.09,-251.56 599.45,-261.82 607.91,-255.44 602.09,-251.56"/>
</g>
<!-- 0&#45;&gt;31 -->
<g id="edge27" class="edge">
<title>0&#45;&gt;31</title>
<path fill="none" stroke="black" d="M546.42,-261.52C538.43,-258.65 530.04,-255.98 522,-254 493.31,-246.94 482.88,-258.27 456,-246 440.19,-238.78 425.82,-225.1 416.05,-214.19"/>
<polygon fill="black" stroke="black" points="545.34,-264.85 555.93,-265.07 547.79,-258.29 545.34,-264.85"/>
</g>
<!-- 9&#45;&gt;0 -->
<g id="edge8" class="edge">
<title>9&#45;&gt;0</title>
<path fill="none" stroke="black" d="M591.32,-334.77C590.57,-322.66 589.71,-308.78 589.06,-298.15"/>
<polygon fill="black" stroke="black" points="587.83,-335.06 591.94,-344.82 594.82,-334.63 587.83,-335.06"/>
</g>
<!-- 9&#45;&gt;23 -->
<g id="edge14" class="edge">
<title>9&#45;&gt;23</title>
<path fill="none" stroke="black" d="M641.03,-343.03C646.18,-339.14 650.72,-334.5 654,-329 675.4,-293.1 660.07,-241.58 649.59,-215.12"/>
<polygon fill="black" stroke="black" points="639.01,-340.17 632.54,-348.57 642.83,-346.04 639.01,-340.17"/>
</g>
<!-- 9&#45;&gt;26 -->
<g id="edge33" class="edge">
<title>9&#45;&gt;26</title>
<path fill="none" stroke="black" stroke-dasharray="1,5" d="M641.73,-345.66C653.19,-342.33 665.44,-339.18 677,-337 687.41,-335.03 764.83,-336.8 772,-329 798.13,-300.58 774.02,-177.64 763.94,-132.07"/>
<polygon fill="black" stroke="black" points="640.48,-342.38 631.91,-348.61 642.49,-349.09 640.48,-342.38"/>
</g>
<!-- 9&#45;&gt;32 -->
<g id="edge30" class="edge">
<title>9&#45;&gt;32</title>
<path fill="none" stroke="black" d="M549.26,-342.79C540.14,-338.48 530.67,-333.76 522,-329 504.11,-319.18 484.73,-306.72 470.15,-296.96"/>
<polygon fill="black" stroke="black" points="548.05,-346.09 558.59,-347.13 551,-339.74 548.05,-346.09"/>
</g>
<!-- 14&#45;&gt;0 -->
<g id="edge9" class="edge">
<title>14&#45;&gt;0</title>
<path fill="none" stroke="black" d="M309.13,-357.74C381.2,-352.87 484.45,-343.62 522,-329 539.95,-322.01 557.46,-308.9 569.93,-298.14"/>
<polygon fill="black" stroke="black" points="308.48,-354.27 298.73,-358.42 308.94,-361.25 308.48,-354.27"/>
</g>
<!-- 14&#45;&gt;28 -->
<g id="edge23" class="edge">
<title>14&#45;&gt;28</title>
<path fill="none" stroke="black" d="M214.61,-336.67C204.62,-323.62 192.75,-308.11 184.08,-296.78"/>
<polygon fill="black" stroke="black" points="211.99,-339.01 220.85,-344.82 217.55,-334.75 211.99,-339.01"/>
</g>
<!-- 14&#45;&gt;29 -->
<g id="edge26" class="edge">
<title>14&#45;&gt;29</title>
<path fill="none" stroke="black" d="M167.37,-349.97C153.87,-345.16 140.59,-338.43 130,-329 95.35,-298.15 79.9,-242.97 74.05,-215.11"/>
<polygon fill="black" stroke="black" points="166.61,-353.41 177.21,-353.15 168.77,-346.75 166.61,-353.41"/>
</g>
<!-- 14&#45;&gt;33 -->
<g id="edge31" class="edge">
<title>14&#45;&gt;33</title>
<path fill="none" stroke="black" d="M253.5,-336.53C263.14,-323.92 274.53,-309.05 283.08,-297.88"/>
<polygon fill="black" stroke="black" points="250.45,-334.75 247.15,-344.82 256.01,-339.01 250.45,-334.75"/>
</g>
<!-- 21&#45;&gt;22 -->
<g id="edge1" class="edge">
<title>21&#45;&gt;22</title>
<path fill="none" stroke="black" stroke-dasharray="5,2" d="M396.12,-96.05C394.97,-85.21 394.96,-71.18 396.09,-60.28"/>
</g>
<!-- 22&#45;&gt;21 -->
<g id="edge10" class="edge">
<title>22&#45;&gt;21</title>
<path fill="none" stroke="black" d="M408.61,-70.36C408.94,-79.03 408.7,-88.35 407.88,-96.05"/>
<polygon fill="black" stroke="black" points="412.09,-70.01 407.91,-60.28 405.11,-70.49 412.09,-70.01"/>
</g>
<!-- 23&#45;&gt;21 -->
<g id="edge11" class="edge">
<title>23&#45;&gt;21</title>
<path fill="none" stroke="black" d="M562.98,-191.62C528.75,-187.32 489.04,-179.01 456,-163 439.97,-155.23 425.11,-141.32 415.05,-130.46"/>
<polygon fill="black" stroke="black" points="562.61,-195.1 572.95,-192.77 563.42,-188.14 562.61,-195.1"/>
</g>
<!-- 23&#45;&gt;24 -->
<g id="edge2" class="edge">
<title>23&#45;&gt;24</title>
<path fill="none" stroke="black" stroke-dasharray="5,2" d="M636.36,-178.82C634.88,-165.08 634.88,-145.89 636.37,-132.15"/>
</g>
<!-- 23&#45;&gt;25 -->
<g id="edge3" class="edge">
<title>23&#45;&gt;25</title>
<path fill="none" stroke="black" stroke-dasharray="5,2" d="M606.43,-181.24C596.29,-175.76 585.51,-169.34 576,-163 561.35,-153.24 545.6,-141.24 534.64,-131.68"/>
</g>
<!-- 23&#45;&gt;26 -->
<g id="edge4" class="edge">
<title>23&#45;&gt;26</title>
<path fill="none" stroke="black" stroke-dasharray="5,2" d="M673.68,-180.74C684.08,-175.83 695.36,-169.85 705,-163 718.54,-153.37 731.41,-139.38 741.67,-128.99"/>
</g>
<!-- 23&#45;&gt;27 -->
<g id="edge5" class="edge">
<title>23&#45;&gt;27</title>
<path fill="none" stroke="black" stroke-dasharray="5,2" d="M671.82,-180.52C678.8,-175.92 685.47,-170.15 690,-163 710.13,-131.21 706.9,-84.8 706.33,-60.04"/>
</g>
<!-- 24&#45;&gt;23 -->
<g id="edge15" class="edge">
<title>24&#45;&gt;23</title>
<path fill="none" stroke="black" d="M648.42,-142.2C649.05,-154.31 648.79,-168.19 647.64,-178.82"/>
<polygon fill="black" stroke="black" points="651.9,-141.85 647.63,-132.15 644.92,-142.39 651.9,-141.85"/>
</g>
<!-- 24&#45;&gt;27 -->
<g id="edge22" class="edge">
<title>24&#45;&gt;27</title>
<path fill="none" stroke="black" d="M664.54,-89.46C674.58,-78.96 686.11,-66.91 694.91,-57.72"/>
<polygon fill="black" stroke="black" points="661.93,-87.12 657.54,-96.76 666.98,-91.96 661.93,-87.12"/>
</g>
<!-- 25&#45;&gt;23 -->
<g id="edge16" class="edge">
<title>25&#45;&gt;23</title>
<path fill="none" stroke="black" d="M556.29,-135.98C568.15,-144.67 581.48,-154.65 594,-163 602.66,-168.77 612.36,-174.61 620.87,-179.74"/>
<polygon fill="black" stroke="black" points="558.09,-132.96 547.94,-129.92 553.98,-138.62 558.09,-132.96"/>
</g>
<!-- 26&#45;&gt;23 -->
<g id="edge17" class="edge">
<title>26&#45;&gt;23</title>
<path fill="none" stroke="black" d="M747.98,-139.91C741.03,-147.96 732.17,-156.48 723,-163 712.02,-170.81 698.89,-177.48 686.37,-182.73"/>
<polygon fill="black" stroke="black" points="750.71,-142.11 754.25,-132.12 745.26,-137.72 750.71,-142.11"/>
</g>
<!-- 27&#45;&gt;23 -->
<g id="edge18" class="edge">
<title>27&#45;&gt;23</title>
<path fill="none" stroke="black" d="M720.19,-69.07C725.33,-94.95 725.89,-134.75 708,-163 702.74,-171.31 694.58,-177.76 685.72,-182.66"/>
<polygon fill="black" stroke="black" points="723.57,-68.14 717.85,-59.23 716.76,-69.77 723.57,-68.14"/>
</g>
<!-- 28&#45;&gt;23 -->
<g id="edge19" class="edge">
<title>28&#45;&gt;23</title>
<path fill="none" stroke="black" d="M201.58,-261.01C207.49,-258.17 213.8,-255.63 220,-254 270.53,-240.71 403.28,-253.43 455,-246 505.6,-238.73 562.27,-223.09 599.83,-211.63"/>
<polygon fill="black" stroke="black" points="199.93,-257.93 192.68,-265.65 203.16,-264.14 199.93,-257.93"/>
</g>
<!-- 28&#45;&gt;29 -->
<g id="edge6" class="edge">
<title>28&#45;&gt;29</title>
<path fill="none" stroke="black" stroke-dasharray="5,2" d="M147.5,-267.38C137.91,-261.19 127.26,-253.35 118,-246 105.36,-235.97 91.6,-224.19 81.95,-214.8"/>
</g>
<!-- 28&#45;&gt;30 -->
<g id="edge7" class="edge">
<title>28&#45;&gt;30</title>
<path fill="none" stroke="black" stroke-dasharray="5,2" d="M166.41,-262.22C164.87,-248.41 164.86,-228.92 166.38,-215.04"/>
</g>
<!-- 29&#45;&gt;28 -->
<g id="edge24" class="edge">
<title>29&#45;&gt;28</title>
<path fill="none" stroke="black" d="M102.86,-218.87C113.43,-227.45 125.13,-237.37 136,-246 143.29,-251.78 151.44,-257.87 158.3,-263.22"/>
<polygon fill="black" stroke="black" points="105.03,-216.13 95.04,-212.62 100.66,-221.6 105.03,-216.13"/>
</g>
<!-- 30&#45;&gt;28 -->
<g id="edge25" class="edge">
<title>30&#45;&gt;28</title>
<path fill="none" stroke="black" d="M178.42,-225.21C179.05,-237.46 178.78,-251.54 177.59,-262.22"/>
<polygon fill="black" stroke="black" points="181.89,-224.74 177.62,-215.04 174.91,-225.28 181.89,-224.74"/>
</g>
<!-- 31&#45;&gt;21 -->
<g id="edge12" class="edge">
<title>31&#45;&gt;21</title>
<path fill="none" stroke="black" d="M402.66,-168.77C402.51,-156.66 402.34,-142.78 402.21,-132.15"/>
<polygon fill="black" stroke="black" points="399.16,-168.87 402.79,-178.82 406.16,-168.78 399.16,-168.87"/>
</g>
<!-- 32&#45;&gt;31 -->
<g id="edge28" class="edge">
<title>32&#45;&gt;31</title>
<path fill="none" stroke="black" d="M432.73,-252.74C425.92,-240.2 417.98,-225.58 412.02,-214.6"/>
<polygon fill="black" stroke="black" points="429.82,-254.71 437.67,-261.82 435.97,-251.36 429.82,-254.71"/>
</g>
<!-- 33&#45;&gt;31 -->
<g id="edge29" class="edge">
<title>33&#45;&gt;31</title>
<path fill="none" stroke="black" d="M325.24,-256.87C343.71,-242.88 367.07,-225.2 383.35,-212.88"/>
<polygon fill="black" stroke="black" points="323,-254.17 317.14,-263 327.23,-259.75 323,-254.17"/>
</g>
<!-- 34&#45;&gt;23 -->
<g id="edge20" class="edge">
<title>34&#45;&gt;23</title>
<path fill="none" stroke="black" d="M697.56,-255.7C684.98,-242.63 669.58,-226.64 658.18,-214.81"/>
<polygon fill="black" stroke="black" points="695.13,-258.22 704.59,-263 700.17,-253.37 695.13,-258.22"/>
</g>
<!-- 35&#45;&gt;26 -->
<g id="edge21" class="edge">
<title>35&#45;&gt;26</title>
<path fill="none" stroke="black" d="M774.28,-341.53C778.18,-337.86 781.59,-333.69 784,-329 816.07,-266.53 798.12,-239.79 784,-171 781.15,-157.12 774.71,-142.42 769.22,-131.57"/>
<polygon fill="black" stroke="black" points="771.9,-338.95 766.33,-347.96 776.3,-344.39 771.9,-338.95"/>
</g>
<!-- 35&#45;&gt;34 -->
<g id="edge32" class="edge">
<title>35&#45;&gt;34</title>
<path fill="none" stroke="black" d="M731.95,-334.77C729.26,-322.66 726.17,-308.78 723.81,-298.15"/>
<polygon fill="black" stroke="black" points="728.6,-335.82 734.18,-344.82 735.43,-334.3 728.6,-335.82"/>
</g>
<!-- 0 -->
<g id="node1" class="node">
<title>0</title>
<polygon fill="#ffffff" fill-opacity="0.811765" stroke="black" stroke-dasharray="5,2" points="642.34,-272.54 642.34,-287.46 610.51,-298 565.49,-298 533.66,-287.46 533.66,-272.54 565.49,-262 610.51,-262 642.34,-272.54"/>
<text text-anchor="middle" x="588" y="-276.3" font-family="Times,serif" font-size="14.00">AppConfig</text>
</g>
<!-- 9 -->
<g id="node2" class="node">
<title>9</title>
<polygon fill="#ffffff" fill-opacity="0.811765" stroke="black" stroke-dasharray="5,2" points="656.13,-355.54 656.13,-370.46 619.15,-381 566.85,-381 529.87,-370.46 529.87,-355.54 566.85,-345 619.15,-345 656.13,-355.54"/>
<text text-anchor="middle" x="593" y="-359.3" font-family="Times,serif" font-size="14.00">DebugConfig</text>
</g>
<!-- 14 -->
<g id="node3" class="node">
<title>14</title>
<polygon fill="#ffffff" fill-opacity="0.811765" stroke="black" stroke-dasharray="5,2" points="298.94,-355.54 298.94,-370.46 260.9,-381 207.1,-381 169.06,-370.46 169.06,-355.54 207.1,-345 260.9,-345 298.94,-355.54"/>
<text text-anchor="middle" x="234" y="-359.3" font-family="Times,serif" font-size="14.00">OutputConfig</text>
</g>
<!-- 21 -->
<g id="node4" class="node">
<title>21</title>
<ellipse fill="#ffffff" fill-opacity="0.811765" stroke="black" cx="402" cy="-114" rx="28.7" ry="18"/>
<text text-anchor="middle" x="402" y="-110.3" font-family="Times,serif" font-size="14.00">main</text>
</g>
<!-- 22 -->
<g id="node5" class="node">
<title>22</title>
<ellipse fill="#ffffff" fill-opacity="0.811765" stroke="black" stroke-dasharray="5,2" cx="402" cy="-42" rx="41.69" ry="18"/>
<text text-anchor="middle" x="402" y="-38.3" font-family="Times,serif" font-size="14.00">versionP</text>
</g>
<!-- 23 -->
<g id="node6" class="node">
<title>23</title>
<ellipse fill="#ffffff" fill-opacity="0.811765" stroke="black" cx="642" cy="-197" rx="70.69" ry="18"/>
<text text-anchor="middle" x="642" y="-193.3" font-family="Times,serif" font-size="14.00">mainWithConfig</text>
</g>
<!-- 24 -->
<g id="node7" class="node">
<title>24</title>
<ellipse fill="#ffffff" fill-opacity="0.811765" stroke="black" stroke-dasharray="5,2" cx="642" cy="-114" rx="48.19" ry="18"/>
<text text-anchor="middle" x="642" y="-110.3" font-family="Times,serif" font-size="14.00">cgCleaned</text>
</g>
<!-- 25 -->
<g id="node8" class="node">
<title>25</title>
<ellipse fill="#ffffff" fill-opacity="0.811765" stroke="black" stroke-dasharray="5,2" cx="522" cy="-114" rx="53.89" ry="18"/>
<text text-anchor="middle" x="522" y="-110.3" font-family="Times,serif" font-size="14.00">cgCollapsed</text>
</g>
<!-- 26 -->
<g id="node9" class="node">
<title>26</title>
<ellipse fill="#ffffff" fill-opacity="0.811765" stroke="black" stroke-dasharray="5,2" cx="760" cy="-114" rx="32.49" ry="18"/>
<text text-anchor="middle" x="760" y="-110.3" font-family="Times,serif" font-size="14.00">debug</text>
</g>
<!-- 27 -->
<g id="node10" class="node">
<title>27</title>
<ellipse fill="#ffffff" fill-opacity="0.811765" stroke="black" stroke-dasharray="5,2" cx="709" cy="-42" rx="27" ry="18"/>
<text text-anchor="middle" x="709" y="-38.3" font-family="Times,serif" font-size="14.00">txt</text>
</g>
<!-- 28 -->
<g id="node11" class="node">
<title>28</title>
<ellipse fill="#ffffff" fill-opacity="0.811765" stroke="black" stroke-dasharray="5,2" cx="172" cy="-280" rx="33.29" ry="18"/>
<text text-anchor="middle" x="172" y="-276.3" font-family="Times,serif" font-size="14.00">output</text>
</g>
<!-- 29 -->
<g id="node12" class="node">
<title>29</title>
<ellipse fill="#ffffff" fill-opacity="0.811765" stroke="black" stroke-dasharray="5,2" cx="71" cy="-197" rx="46.59" ry="18"/>
<text text-anchor="middle" x="71" y="-193.3" font-family="Times,serif" font-size="14.00">hasOutput</text>
</g>
<!-- 30 -->
<g id="node13" class="node">
<title>30</title>
<ellipse fill="#ffffff" fill-opacity="0.811765" stroke="black" stroke-dasharray="5,2" cx="172" cy="-197" rx="36" ry="18"/>
<text text-anchor="middle" x="172" y="-193.3" font-family="Times,serif" font-size="14.00">runDot</text>
</g>
<!-- 31 -->
<g id="node14" class="node">
<title>31</title>
<ellipse fill="#ffffff" fill-opacity="0.811765" stroke="black" stroke-dasharray="5,2" cx="403" cy="-197" rx="39.79" ry="18"/>
<text text-anchor="middle" x="403" y="-193.3" font-family="Times,serif" font-size="14.00">pConfig</text>
</g>
<!-- 32 -->
<g id="node15" class="node">
<title>32</title>
<ellipse fill="#ffffff" fill-opacity="0.811765" stroke="black" stroke-dasharray="5,2" cx="447" cy="-280" rx="63.09" ry="18"/>
<text text-anchor="middle" x="447" y="-276.3" font-family="Times,serif" font-size="14.00">pDebugConfig</text>
</g>
<!-- 33 -->
<g id="node16" class="node">
<title>33</title>
<ellipse fill="#ffffff" fill-opacity="0.811765" stroke="black" stroke-dasharray="5,2" cx="296" cy="-280" rx="63.89" ry="18"/>
<text text-anchor="middle" x="296" y="-276.3" font-family="Times,serif" font-size="14.00">pOutputConfig</text>
</g>
<!-- 34 -->
<g id="node17" class="node">
<title>34</title>
<ellipse fill="#ffffff" fill-opacity="0.811765" stroke="black" stroke-dasharray="5,2" cx="720" cy="-280" rx="40.09" ry="18"/>
<text text-anchor="middle" x="720" y="-276.3" font-family="Times,serif" font-size="14.00">printDie</text>
</g>
<!-- 35 -->
<g id="node18" class="node">
<title>35</title>
<ellipse fill="#ffffff" fill-opacity="0.811765" stroke="black" stroke-dasharray="5,2" cx="738" cy="-363" rx="48.99" ry="18"/>
<text text-anchor="middle" x="738" y="-359.3" font-family="Times,serif" font-size="14.00">printStderr</text>
</g>
</g>
</svg>
