<?xml version="1.0" encoding="UTF-8" standalone="no"?>
<!DOCTYPE svg PUBLIC "-//W3C//DTD SVG 1.1//EN"
 "http://www.w3.org/Graphics/SVG/1.1/DTD/svg11.dtd">
<!-- Generated by graphviz version 2.49.3 (0)
 -->
<!-- Title: calligraphy Pages: 1 -->
<svg width="836pt" height="459pt"
 viewBox="0.00 0.00 836.00 459.00" xmlns="http://www.w3.org/2000/svg" xmlns:xlink="http://www.w3.org/1999/xlink">
<g id="graph0" class="graph" transform="scale(1 1) rotate(0) translate(4 455)">
<title>calligraphy</title>
<polygon fill="white" stroke="transparent" points="-4,4 -4,-455 832,-455 832,4 -4,4"/>
<g id="clust1" class="cluster">
<title>cluster_module_0</title>
<polygon fill="none" stroke="black" points="8,-8 8,-443 820,-443 820,-8 8,-8"/>
<text text-anchor="middle" x="414" y="-427.8" font-family="Times,serif" font-size="14.00">Calligraphy</text>
</g>
<g id="clust2" class="cluster">
<title>cluster_0_0</title>
</g>
<g id="clust3" class="cluster">
<title>cluster_0_1</title>
</g>
<g id="clust4" class="cluster">
<title>cluster_0_2</title>
</g>
<g id="clust5" class="cluster">
<title>cluster_0_3</title>
</g>
<g id="clust6" class="cluster">
<title>cluster_0_4</title>
</g>
<g id="clust7" class="cluster">
<title>cluster_0_5</title>
</g>
<g id="clust8" class="cluster">
<title>cluster_0_6</title>
</g>
<g id="clust9" class="cluster">
<title>cluster_0_7</title>
</g>
<g id="clust10" class="cluster">
<title>cluster_0_8</title>
</g>
<g id="clust11" class="cluster">
<title>cluster_0_9</title>
</g>
<g id="clust12" class="cluster">
<title>cluster_0_10</title>
</g>
<!-- 0&#45;&gt;23 -->
<g id="edge14" class="edge">
<title>0&#45;&gt;23</title>
<path fill="none" stroke="black" d="M617.22,-253.17C625.57,-240.64 635.37,-225.95 642.75,-214.88"/>
<polygon fill="black" stroke="black" points="614.09,-251.56 611.45,-261.82 619.91,-255.44 614.09,-251.56"/>
</g>
<!-- 0&#45;&gt;32 -->
<g id="edge29" class="edge">
<title>0&#45;&gt;32</title>
<path fill="none" stroke="black" d="M558.72,-261.43C550.64,-258.54 542.15,-255.89 534,-254 496.6,-245.34 483.14,-261.45 448,-246 432.09,-239 417.73,-225.3 407.98,-214.33"/>
<polygon fill="black" stroke="black" points="557.72,-264.79 568.31,-265.02 560.17,-258.23 557.72,-264.79"/>
</g>
<!-- 11&#45;&gt;0 -->
<g id="edge9" class="edge">
<title>11&#45;&gt;0</title>
<path fill="none" stroke="black" d="M603.32,-334.77C602.57,-322.66 601.71,-308.78 601.06,-298.15"/>
<polygon fill="black" stroke="black" points="599.83,-335.06 603.94,-344.82 606.82,-334.63 599.83,-335.06"/>
</g>
<!-- 11&#45;&gt;23 -->
<g id="edge15" class="edge">
<title>11&#45;&gt;23</title>
<path fill="none" stroke="black" d="M653.03,-343.03C658.18,-339.14 662.72,-334.5 666,-329 687.4,-293.1 672.07,-241.58 661.59,-215.12"/>
<polygon fill="black" stroke="black" points="651.01,-340.17 644.54,-348.57 654.83,-346.04 651.01,-340.17"/>
</g>
<!-- 11&#45;&gt;27 -->
<g id="edge35" class="edge">
<title>11&#45;&gt;27</title>
<path fill="none" stroke="black" stroke-dasharray="1,5" d="M653.73,-345.66C665.19,-342.33 677.44,-339.18 689,-337 699.41,-335.03 776.83,-336.8 784,-329 810.13,-300.58 786.02,-177.64 775.94,-132.07"/>
<polygon fill="black" stroke="black" points="652.48,-342.38 643.91,-348.61 654.49,-349.09 652.48,-342.38"/>
</g>
<!-- 11&#45;&gt;33 -->
<g id="edge32" class="edge">
<title>11&#45;&gt;33</title>
<path fill="none" stroke="black" d="M561.26,-342.79C552.14,-338.48 542.67,-333.76 534,-329 516.11,-319.18 496.73,-306.72 482.15,-296.96"/>
<polygon fill="black" stroke="black" points="560.05,-346.09 570.59,-347.13 563,-339.74 560.05,-346.09"/>
</g>
<!-- 16&#45;&gt;0 -->
<g id="edge10" class="edge">
<title>16&#45;&gt;0</title>
<path fill="none" stroke="black" d="M317.81,-357.86C390.68,-353.05 495.87,-343.83 534,-329 551.96,-322.02 569.46,-308.91 581.93,-298.15"/>
<polygon fill="black" stroke="black" points="317.51,-354.37 307.76,-358.51 317.96,-361.36 317.51,-354.37"/>
</g>
<!-- 16&#45;&gt;29 -->
<g id="edge25" class="edge">
<title>16&#45;&gt;29</title>
<path fill="none" stroke="black" d="M222.67,-336.67C212.2,-323.62 199.75,-308.11 190.66,-296.78"/>
<polygon fill="black" stroke="black" points="220.23,-339.21 229.22,-344.82 225.69,-334.83 220.23,-339.21"/>
</g>
<!-- 16&#45;&gt;30 -->
<g id="edge28" class="edge">
<title>16&#45;&gt;30</title>
<path fill="none" stroke="black" d="M175.82,-350.34C161.55,-345.51 147.37,-338.67 136,-329 100.02,-298.41 82.01,-243.12 74.85,-215.17"/>
<polygon fill="black" stroke="black" points="175.1,-353.78 185.69,-353.38 177.16,-347.09 175.1,-353.78"/>
</g>
<!-- 16&#45;&gt;34 -->
<g id="edge33" class="edge">
<title>16&#45;&gt;34</title>
<path fill="none" stroke="black" d="M263.15,-336.89C273.33,-324.21 285.4,-309.16 294.46,-297.88"/>
<polygon fill="black" stroke="black" points="260.31,-334.83 256.78,-344.82 265.77,-339.21 260.31,-334.83"/>
</g>
<!-- 21&#45;&gt;22 -->
<g id="edge1" class="edge">
<title>21&#45;&gt;22</title>
<path fill="none" stroke="black" stroke-dasharray="5,2" d="M388.12,-96.05C386.97,-85.21 386.96,-71.18 388.09,-60.28"/>
</g>
<!-- 22&#45;&gt;21 -->
<g id="edge11" class="edge">
<title>22&#45;&gt;21</title>
<path fill="none" stroke="black" d="M400.61,-70.36C400.94,-79.03 400.7,-88.35 399.88,-96.05"/>
<polygon fill="black" stroke="black" points="404.09,-70.01 399.91,-60.28 397.11,-70.49 404.09,-70.01"/>
</g>
<!-- 23&#45;&gt;21 -->
<g id="edge12" class="edge">
<title>23&#45;&gt;21</title>
<path fill="none" stroke="black" d="M573.29,-193.6C533.93,-189.85 486.84,-181.41 448,-163 431.91,-155.37 417.05,-141.44 407.01,-130.54"/>
<polygon fill="black" stroke="black" points="573.11,-197.09 583.38,-194.47 573.72,-190.12 573.11,-197.09"/>
</g>
<!-- 23&#45;&gt;24 -->
<g id="edge2" class="edge">
<title>23&#45;&gt;24</title>
<path fill="none" stroke="black" stroke-dasharray="5,2" d="M648.36,-178.82C646.88,-165.08 646.88,-145.89 648.37,-132.15"/>
</g>
<!-- 23&#45;&gt;25 -->
<g id="edge3" class="edge">
<title>23&#45;&gt;25</title>
<path fill="none" stroke="black" stroke-dasharray="5,2" d="M618.56,-181.32C606.7,-176 593.56,-169.65 582,-163 565.22,-153.34 547.37,-140.64 534.18,-130.73"/>
</g>
<!-- 23&#45;&gt;26 -->
<g id="edge4" class="edge">
<title>23&#45;&gt;26</title>
<path fill="none" stroke="black" stroke-dasharray="5,2" d="M610.28,-182.66C601.42,-177.76 593.26,-171.31 588,-163 567.87,-131.21 571.1,-84.8 577.93,-60.04"/>
</g>
<!-- 23&#45;&gt;27 -->
<g id="edge5" class="edge">
<title>23&#45;&gt;27</title>
<path fill="none" stroke="black" stroke-dasharray="5,2" d="M685.68,-180.74C696.08,-175.83 707.36,-169.85 717,-163 730.54,-153.37 743.41,-139.38 753.67,-128.99"/>
</g>
<!-- 23&#45;&gt;28 -->
<g id="edge6" class="edge">
<title>23&#45;&gt;28</title>
<path fill="none" stroke="black" stroke-dasharray="5,2" d="M683.82,-180.52C690.8,-175.92 697.47,-170.15 702,-163 722.13,-131.21 718.9,-84.8 718.33,-60.04"/>
</g>
<!-- 24&#45;&gt;23 -->
<g id="edge16" class="edge">
<title>24&#45;&gt;23</title>
<path fill="none" stroke="black" d="M660.42,-142.2C661.05,-154.31 660.79,-168.19 659.64,-178.82"/>
<polygon fill="black" stroke="black" points="663.9,-141.85 659.63,-132.15 656.92,-142.39 663.9,-141.85"/>
</g>
<!-- 24&#45;&gt;28 -->
<g id="edge24" class="edge">
<title>24&#45;&gt;28</title>
<path fill="none" stroke="black" d="M676.54,-89.46C686.58,-78.96 698.11,-66.91 706.91,-57.72"/>
<polygon fill="black" stroke="black" points="673.93,-87.12 669.54,-96.76 678.98,-91.96 673.93,-87.12"/>
</g>
<!-- 25&#45;&gt;26 -->
<g id="edge22" class="edge">
<title>25&#45;&gt;26</title>
<path fill="none" stroke="black" d="M538.17,-89.82C548.56,-79.86 560.46,-68.45 569.91,-59.39"/>
<polygon fill="black" stroke="black" points="535.73,-87.32 530.93,-96.76 540.57,-92.37 535.73,-87.32"/>
</g>
<!-- 26&#45;&gt;23 -->
<g id="edge17" class="edge">
<title>26&#45;&gt;23</title>
<path fill="none" stroke="black" d="M589.38,-70.27C588.66,-96.17 588.38,-135.18 606,-163 610.53,-170.15 617.2,-175.92 624.18,-180.52"/>
<polygon fill="black" stroke="black" points="592.89,-70.14 589.67,-60.04 585.89,-69.94 592.89,-70.14"/>
</g>
<!-- 27&#45;&gt;23 -->
<g id="edge18" class="edge">
<title>27&#45;&gt;23</title>
<path fill="none" stroke="black" d="M759.98,-139.91C753.03,-147.96 744.17,-156.48 735,-163 724.02,-170.81 710.89,-177.48 698.37,-182.73"/>
<polygon fill="black" stroke="black" points="762.71,-142.11 766.25,-132.12 757.26,-137.72 762.71,-142.11"/>
</g>
<!-- 28&#45;&gt;23 -->
<g id="edge19" class="edge">
<title>28&#45;&gt;23</title>
<path fill="none" stroke="black" d="M732.19,-69.07C737.33,-94.95 737.89,-134.75 720,-163 714.74,-171.31 706.58,-177.76 697.72,-182.66"/>
<polygon fill="black" stroke="black" points="735.57,-68.14 729.85,-59.23 728.76,-69.77 735.57,-68.14"/>
</g>
<!-- 29&#45;&gt;23 -->
<g id="edge20" class="edge">
<title>29&#45;&gt;23</title>
<path fill="none" stroke="black" d="M209.33,-261.97C216.58,-258.75 224.4,-255.82 232,-254 278.49,-242.85 399.61,-252.32 447,-246 503.68,-238.44 567.61,-222.44 609.23,-210.99"/>
<polygon fill="black" stroke="black" points="207.4,-259.01 199.87,-266.47 210.41,-265.33 207.4,-259.01"/>
</g>
<!-- 29&#45;&gt;30 -->
<g id="edge7" class="edge">
<title>29&#45;&gt;30</title>
<path fill="none" stroke="black" stroke-dasharray="5,2" d="M152.47,-268.41C141.37,-262.2 128.73,-254.01 118,-246 104.87,-236.19 90.87,-224.19 81.28,-214.64"/>
</g>
<!-- 29&#45;&gt;31 -->
<g id="edge8" class="edge">
<title>29&#45;&gt;31</title>
<path fill="none" stroke="black" stroke-dasharray="5,2" d="M172.41,-262.22C170.87,-248.41 170.86,-228.92 172.38,-215.04"/>
</g>
<!-- 30&#45;&gt;29 -->
<g id="edge26" class="edge">
<title>30&#45;&gt;29</title>
<path fill="none" stroke="black" d="M102.38,-219C112.97,-227.68 124.8,-237.64 136,-246 144.28,-252.18 153.7,-258.47 161.66,-263.87"/>
<polygon fill="black" stroke="black" points="104.53,-216.24 94.56,-212.67 100.13,-221.68 104.53,-216.24"/>
</g>
<!-- 31&#45;&gt;29 -->
<g id="edge27" class="edge">
<title>31&#45;&gt;29</title>
<path fill="none" stroke="black" d="M184.42,-225.21C185.05,-237.46 184.78,-251.54 183.59,-262.22"/>
<polygon fill="black" stroke="black" points="187.89,-224.74 183.62,-215.04 180.91,-225.28 187.89,-224.74"/>
</g>
<!-- 32&#45;&gt;21 -->
<g id="edge13" class="edge">
<title>32&#45;&gt;21</title>
<path fill="none" stroke="black" d="M394.66,-168.77C394.51,-156.66 394.34,-142.78 394.21,-132.15"/>
<polygon fill="black" stroke="black" points="391.16,-168.87 394.79,-178.82 398.16,-168.78 391.16,-168.87"/>
</g>
<!-- 33&#45;&gt;32 -->
<g id="edge30" class="edge">
<title>33&#45;&gt;32</title>
<path fill="none" stroke="black" d="M439.34,-254.12C429.09,-241.14 416.83,-225.63 407.81,-214.21"/>
<polygon fill="black" stroke="black" points="436.79,-256.54 445.74,-262.22 442.29,-252.2 436.79,-256.54"/>
</g>
<!-- 34&#45;&gt;32 -->
<g id="edge31" class="edge">
<title>34&#45;&gt;32</title>
<path fill="none" stroke="black" d="M333.27,-255.48C347.76,-241.98 365.55,-225.42 378.31,-213.54"/>
<polygon fill="black" stroke="black" points="330.54,-253.23 325.61,-262.61 335.31,-258.36 330.54,-253.23"/>
</g>
<!-- 35&#45;&gt;23 -->
<g id="edge21" class="edge">
<title>35&#45;&gt;23</title>
<path fill="none" stroke="black" d="M709.56,-255.7C696.98,-242.63 681.58,-226.64 670.18,-214.81"/>
<polygon fill="black" stroke="black" points="707.13,-258.22 716.59,-263 712.17,-253.37 707.13,-258.22"/>
</g>
<!-- 36&#45;&gt;27 -->
<g id="edge23" class="edge">
<title>36&#45;&gt;27</title>
<path fill="none" stroke="black" d="M786.28,-341.53C790.18,-337.86 793.59,-333.69 796,-329 828.07,-266.53 810.12,-239.79 796,-171 793.15,-157.12 786.71,-142.42 781.22,-131.57"/>
<polygon fill="black" stroke="black" points="783.9,-338.95 778.33,-347.96 788.3,-344.39 783.9,-338.95"/>
</g>
<!-- 36&#45;&gt;35 -->
<g id="edge34" class="edge">
<title>36&#45;&gt;35</title>
<path fill="none" stroke="black" d="M743.95,-334.77C741.26,-322.66 738.17,-308.78 735.81,-298.15"/>
<polygon fill="black" stroke="black" points="740.6,-335.82 746.18,-344.82 747.43,-334.3 740.6,-335.82"/>
</g>
<!-- 0 -->
<g id="node1" class="node">
<title>0</title>
<polygon fill="#ffffff" fill-opacity="0.811765" stroke="black" stroke-dasharray="5,2" points="654.34,-272.54 654.34,-287.46 622.51,-298 577.49,-298 545.66,-287.46 545.66,-272.54 577.49,-262 622.51,-262 654.34,-272.54"/>
<text text-anchor="middle" x="600" y="-276.3" font-family="Times,serif" font-size="14.00">AppConfig</text>
</g>
<!-- 11 -->
<g id="node2" class="node">
<title>11</title>
<polygon fill="#ffffff" fill-opacity="0.811765" stroke="black" stroke-dasharray="5,2" points="668.13,-355.54 668.13,-370.46 631.15,-381 578.85,-381 541.87,-370.46 541.87,-355.54 578.85,-345 631.15,-345 668.13,-355.54"/>
<text text-anchor="middle" x="605" y="-359.3" font-family="Times,serif" font-size="14.00">DebugConfig</text>
</g>
<!-- 16 -->
<g id="node3" class="node">
<title>16</title>
<polygon fill="#ffffff" fill-opacity="0.811765" stroke="black" stroke-dasharray="5,2" points="307.94,-355.54 307.94,-370.46 269.9,-381 216.1,-381 178.06,-370.46 178.06,-355.54 216.1,-345 269.9,-345 307.94,-355.54"/>
<text text-anchor="middle" x="243" y="-359.3" font-family="Times,serif" font-size="14.00">OutputConfig</text>
</g>
<!-- 21 -->
<g id="node4" class="node">
<title>21</title>
<ellipse fill="#ffffff" fill-opacity="0.811765" stroke="black" cx="394" cy="-114" rx="28.7" ry="18"/>
<text text-anchor="middle" x="394" y="-110.3" font-family="Times,serif" font-size="14.00">main</text>
</g>
<!-- 22 -->
<g id="node5" class="node">
<title>22</title>
<ellipse fill="#ffffff" fill-opacity="0.811765" stroke="black" stroke-dasharray="5,2" cx="394" cy="-42" rx="41.69" ry="18"/>
<text text-anchor="middle" x="394" y="-38.3" font-family="Times,serif" font-size="14.00">versionP</text>
</g>
<!-- 23 -->
<g id="node6" class="node">
<title>23</title>
<ellipse fill="#ffffff" fill-opacity="0.811765" stroke="black" cx="654" cy="-197" rx="70.69" ry="18"/>
<text text-anchor="middle" x="654" y="-193.3" font-family="Times,serif" font-size="14.00">mainWithConfig</text>
</g>
<!-- 24 -->
<g id="node7" class="node">
<title>24</title>
<ellipse fill="#ffffff" fill-opacity="0.811765" stroke="black" stroke-dasharray="5,2" cx="654" cy="-114" rx="48.19" ry="18"/>
<text text-anchor="middle" x="654" y="-110.3" font-family="Times,serif" font-size="14.00">cgCleaned</text>
</g>
<!-- 25 -->
<g id="node8" class="node">
<title>25</title>
<ellipse fill="#ffffff" fill-opacity="0.811765" stroke="black" stroke-dasharray="5,2" cx="514" cy="-114" rx="53.89" ry="18"/>
<text text-anchor="middle" x="514" y="-110.3" font-family="Times,serif" font-size="14.00">cgCollapsed</text>
</g>
<!-- 26 -->
<g id="node9" class="node">
<title>26</title>
<ellipse fill="#ffffff" fill-opacity="0.811765" stroke="black" stroke-dasharray="5,2" cx="587" cy="-42" rx="65.79" ry="18"/>
<text text-anchor="middle" x="587" y="-38.3" font-family="Times,serif" font-size="14.00">cgNodeFiltered</text>
</g>
<!-- 27 -->
<g id="node10" class="node">
<title>27</title>
<ellipse fill="#ffffff" fill-opacity="0.811765" stroke="black" stroke-dasharray="5,2" cx="772" cy="-114" rx="32.49" ry="18"/>
<text text-anchor="middle" x="772" y="-110.3" font-family="Times,serif" font-size="14.00">debug</text>
</g>
<!-- 28 -->
<g id="node11" class="node">
<title>28</title>
<ellipse fill="#ffffff" fill-opacity="0.811765" stroke="black" stroke-dasharray="5,2" cx="721" cy="-42" rx="27" ry="18"/>
<text text-anchor="middle" x="721" y="-38.3" font-family="Times,serif" font-size="14.00">txt</text>
</g>
<!-- 29 -->
<g id="node12" class="node">
<title>29</title>
<ellipse fill="#ffffff" fill-opacity="0.811765" stroke="black" stroke-dasharray="5,2" cx="178" cy="-280" rx="33.29" ry="18"/>
<text text-anchor="middle" x="178" y="-276.3" font-family="Times,serif" font-size="14.00">output</text>
</g>
<!-- 30 -->
<g id="node13" class="node">
<title>30</title>
<ellipse fill="#ffffff" fill-opacity="0.811765" stroke="black" stroke-dasharray="5,2" cx="71" cy="-197" rx="46.59" ry="18"/>
<text text-anchor="middle" x="71" y="-193.3" font-family="Times,serif" font-size="14.00">hasOutput</text>
</g>
<!-- 31 -->
<g id="node14" class="node">
<title>31</title>
<ellipse fill="#ffffff" fill-opacity="0.811765" stroke="black" stroke-dasharray="5,2" cx="178" cy="-197" rx="42.49" ry="18"/>
<text text-anchor="middle" x="178" y="-193.3" font-family="Times,serif" font-size="14.00">writePng</text>
</g>
<!-- 32 -->
<g id="node15" class="node">
<title>32</title>
<ellipse fill="#ffffff" fill-opacity="0.811765" stroke="black" stroke-dasharray="5,2" cx="395" cy="-197" rx="39.79" ry="18"/>
<text text-anchor="middle" x="395" y="-193.3" font-family="Times,serif" font-size="14.00">pConfig</text>
</g>
<!-- 33 -->
<g id="node16" class="node">
<title>33</title>
<ellipse fill="#ffffff" fill-opacity="0.811765" stroke="black" stroke-dasharray="5,2" cx="459" cy="-280" rx="63.09" ry="18"/>
<text text-anchor="middle" x="459" y="-276.3" font-family="Times,serif" font-size="14.00">pDebugConfig</text>
</g>
<!-- 34 -->
<g id="node17" class="node">
<title>34</title>
<ellipse fill="#ffffff" fill-opacity="0.811765" stroke="black" stroke-dasharray="5,2" cx="308" cy="-280" rx="63.89" ry="18"/>
<text text-anchor="middle" x="308" y="-276.3" font-family="Times,serif" font-size="14.00">pOutputConfig</text>
</g>
<!-- 35 -->
<g id="node18" class="node">
<title>35</title>
<ellipse fill="#ffffff" fill-opacity="0.811765" stroke="black" stroke-dasharray="5,2" cx="732" cy="-280" rx="40.09" ry="18"/>
<text text-anchor="middle" x="732" y="-276.3" font-family="Times,serif" font-size="14.00">printDie</text>
</g>
<!-- 36 -->
<g id="node19" class="node">
<title>36</title>
<ellipse fill="#ffffff" fill-opacity="0.811765" stroke="black" stroke-dasharray="5,2" cx="750" cy="-363" rx="48.99" ry="18"/>
<text text-anchor="middle" x="750" y="-359.3" font-family="Times,serif" font-size="14.00">printStderr</text>
</g>
</g>
</svg>
