<?xml version="1.0" encoding="UTF-8" standalone="no"?>
<!DOCTYPE svg PUBLIC "-//W3C//DTD SVG 1.1//EN"
 "http://www.w3.org/Graphics/SVG/1.1/DTD/svg11.dtd">
<!-- Generated by graphviz version 2.49.3 (0)
 -->
<!-- Title: calligraphy Pages: 1 -->
<svg width="694pt" height="387pt"
 viewBox="0.00 0.00 694.00 387.00" xmlns="http://www.w3.org/2000/svg" xmlns:xlink="http://www.w3.org/1999/xlink">
<g id="graph0" class="graph" transform="scale(1 1) rotate(0) translate(4 383)">
<title>calligraphy</title>
<polygon fill="white" stroke="transparent" points="-4,4 -4,-383 690,-383 690,4 -4,4"/>
<g id="clust1" class="cluster">
<title>cluster_module_0</title>
<polygon fill="none" stroke="black" points="8,-8 8,-371 678,-371 678,-8 8,-8"/>
<text text-anchor="middle" x="343" y="-355.8" font-family="Times,serif" font-size="14.00">Calligraphy</text>
</g>
<g id="clust2" class="cluster">
<title>cluster_0_0</title>
</g>
<g id="clust3" class="cluster">
<title>cluster_0_1</title>
</g>
<g id="clust4" class="cluster">
<title>cluster_0_2</title>
</g>
<g id="clust5" class="cluster">
<title>cluster_0_3</title>
</g>
<g id="clust6" class="cluster">
<title>cluster_0_4</title>
</g>
<g id="clust7" class="cluster">
<title>cluster_0_5</title>
</g>
<g id="clust8" class="cluster">
<title>cluster_0_6</title>
</g>
<g id="clust9" class="cluster">
<title>cluster_0_7</title>
</g>
<g id="clust10" class="cluster">
<title>cluster_0_8</title>
</g>
<g id="clust11" class="cluster">
<title>cluster_0_9</title>
</g>
<g id="clust12" class="cluster">
<title>cluster_0_10</title>
</g>
<!-- 0&#45;&gt;23 -->
<g id="edge5" class="edge">
<title>0&#45;&gt;23</title>
<path fill="none" stroke="black" d="M322.25,-189.76C289.14,-175.47 244.72,-155.34 215.9,-141.54"/>
<polygon fill="black" stroke="black" points="321.13,-193.08 331.7,-193.81 323.89,-186.65 321.13,-193.08"/>
</g>
<!-- 0&#45;&gt;23 -->
<g id="edge19" class="edge">
<title>0&#45;&gt;23</title>
<path fill="none" stroke="black" stroke-dasharray="1,5" d="M328.63,-187.43C297.88,-172.91 254.67,-153.45 224.01,-140.35"/>
<polygon fill="black" stroke="black" points="327.21,-190.63 337.74,-191.76 330.21,-184.31 327.21,-190.63"/>
</g>
<!-- 0&#45;&gt;32 -->
<g id="edge11" class="edge">
<title>0&#45;&gt;32</title>
<path fill="none" stroke="black" d="M359.58,-179.7C358.95,-167.5 359.22,-153.52 360.4,-142.88"/>
<polygon fill="black" stroke="black" points="356.1,-180.12 360.36,-189.82 363.08,-179.58 356.1,-180.12"/>
</g>
<!-- 0&#45;&gt;32 -->
<g id="edge22" class="edge">
<title>0&#45;&gt;32</title>
<path fill="none" stroke="black" stroke-dasharray="1,5" d="M372.42,-179.7C373.05,-167.5 372.78,-153.52 371.6,-142.88"/>
<polygon fill="black" stroke="black" points="368.92,-179.58 371.64,-189.82 375.9,-180.12 368.92,-179.58"/>
</g>
<!-- 11&#45;&gt;0 -->
<g id="edge1" class="edge">
<title>11&#45;&gt;0</title>
<path fill="none" stroke="black" d="M265.57,-270.06C274.11,-266.05 282.94,-261.63 291,-257 307.58,-247.47 325.03,-234.64 339.14,-224.65"/>
<polygon fill="black" stroke="black" points="264.1,-266.89 256.47,-274.25 267.02,-273.25 264.1,-266.89"/>
</g>
<!-- 11&#45;&gt;0 -->
<g id="edge17" class="edge">
<title>11&#45;&gt;0</title>
<path fill="none" stroke="black" stroke-dasharray="1,5" d="M275.89,-273.32C287.12,-268.5 298.69,-262.93 309,-257 324.72,-247.96 341.22,-235.96 352.67,-226.22"/>
<polygon fill="black" stroke="black" points="274.47,-270.12 266.58,-277.18 277.15,-276.59 274.47,-270.12"/>
</g>
<!-- 11&#45;&gt;23 -->
<g id="edge6" class="edge">
<title>11&#45;&gt;23</title>
<path fill="none" stroke="black" d="M163.46,-276.21C154.46,-271.54 146.42,-265.31 141,-257 122.78,-229.08 131.41,-213.92 141,-182 145.43,-167.27 155.13,-152.84 164.72,-142.32"/>
<polygon fill="black" stroke="black" points="162.17,-279.47 172.73,-280.38 165.04,-273.08 162.17,-279.47"/>
</g>
<!-- 11&#45;&gt;23 -->
<g id="edge20" class="edge">
<title>11&#45;&gt;23</title>
<path fill="none" stroke="black" stroke-dasharray="1,5" d="M174.09,-271.95C168.2,-267.92 162.92,-263 159,-257 140.78,-229.08 149.41,-213.92 159,-182 163.29,-167.72 172.54,-153.72 179.59,-143.29"/>
<polygon fill="black" stroke="black" points="172.67,-275.18 183.06,-277.24 176.22,-269.14 172.67,-275.18"/>
</g>
<!-- 11&#45;&gt;33 -->
<g id="edge14" class="edge">
<title>11&#45;&gt;33</title>
<path fill="none" stroke="black" d="M218.58,-262.77C217.95,-250.66 218.22,-236.78 219.37,-226.15"/>
<polygon fill="black" stroke="black" points="215.1,-263.12 219.36,-272.82 222.08,-262.58 215.1,-263.12"/>
</g>
<!-- 11&#45;&gt;33 -->
<g id="edge23" class="edge">
<title>11&#45;&gt;33</title>
<path fill="none" stroke="black" stroke-dasharray="1,5" d="M231.42,-262.77C232.05,-250.66 231.78,-236.78 230.63,-226.15"/>
<polygon fill="black" stroke="black" points="227.92,-262.58 230.64,-272.82 234.9,-263.12 227.92,-262.58"/>
</g>
<!-- 16&#45;&gt;0 -->
<g id="edge2" class="edge">
<title>16&#45;&gt;0</title>
<path fill="none" stroke="black" d="M439.96,-267.44C421.02,-254.33 398.91,-238.08 383.73,-226.04"/>
<polygon fill="black" stroke="black" points="438.18,-270.46 448.41,-273.22 442.13,-264.68 438.18,-270.46"/>
</g>
<!-- 16&#45;&gt;0 -->
<g id="edge18" class="edge">
<title>16&#45;&gt;0</title>
<path fill="none" stroke="black" stroke-dasharray="1,5" d="M451.01,-266.52C433.56,-253.1 410.78,-236.65 393.1,-224.78"/>
<polygon fill="black" stroke="black" points="449.06,-269.43 459.1,-272.82 453.36,-263.91 449.06,-269.43"/>
</g>
<!-- 16&#45;&gt;29 -->
<g id="edge10" class="edge">
<title>16&#45;&gt;29</title>
<path fill="none" stroke="black" d="M470.58,-262.7C469.95,-250.5 470.22,-236.52 471.4,-225.88"/>
<polygon fill="black" stroke="black" points="467.1,-263.12 471.36,-272.82 474.08,-262.58 467.1,-263.12"/>
</g>
<!-- 16&#45;&gt;29 -->
<g id="edge21" class="edge">
<title>16&#45;&gt;29</title>
<path fill="none" stroke="black" stroke-dasharray="1,5" d="M483.42,-262.7C484.05,-250.5 483.78,-236.52 482.6,-225.88"/>
<polygon fill="black" stroke="black" points="479.92,-262.58 482.64,-272.82 486.9,-263.12 479.92,-262.58"/>
</g>
<!-- 16&#45;&gt;34 -->
<g id="edge15" class="edge">
<title>16&#45;&gt;34</title>
<path fill="none" stroke="black" d="M505.23,-266.98C524.7,-253.29 550.34,-236.28 569.82,-224.24"/>
<polygon fill="black" stroke="black" points="503.14,-264.17 497.03,-272.82 507.2,-269.87 503.14,-264.17"/>
</g>
<!-- 16&#45;&gt;34 -->
<g id="edge24" class="edge">
<title>16&#45;&gt;34</title>
<path fill="none" stroke="black" stroke-dasharray="1,5" d="M515.54,-268.26C536.76,-254.77 562.06,-237.71 579.1,-225.37"/>
<polygon fill="black" stroke="black" points="513.64,-265.32 507.03,-273.61 517.36,-271.25 513.64,-265.32"/>
</g>
<!-- 23&#45;&gt;21 -->
<g id="edge3" class="edge">
<title>23&#45;&gt;21</title>
<path fill="none" stroke="black" d="M217.4,-101.82C237.42,-87.2 262.97,-68.56 279.88,-56.23"/>
<polygon fill="black" stroke="black" points="215.21,-99.08 209.2,-107.8 219.34,-104.74 215.21,-99.08"/>
</g>
<!-- 29&#45;&gt;23 -->
<g id="edge7" class="edge">
<title>29&#45;&gt;23</title>
<path fill="none" stroke="black" d="M448.23,-188.61C443,-185.98 437.46,-183.61 432,-182 381.59,-167.1 365.36,-185.19 314,-174 280.61,-166.72 244.3,-152.29 219.09,-141.14"/>
<polygon fill="black" stroke="black" points="446.78,-191.81 457.23,-193.55 450.14,-185.67 446.78,-191.81"/>
</g>
<!-- 32&#45;&gt;21 -->
<g id="edge4" class="edge">
<title>32&#45;&gt;21</title>
<path fill="none" stroke="black" d="M345.86,-100.01C334.48,-86.45 320.59,-69.91 310.72,-58.15"/>
<polygon fill="black" stroke="black" points="343.46,-102.59 352.57,-108 348.82,-98.09 343.46,-102.59"/>
</g>
<!-- 33&#45;&gt;32 -->
<g id="edge12" class="edge">
<title>33&#45;&gt;32</title>
<path fill="none" stroke="black" d="M260.83,-186.41C286.3,-171.79 319.79,-152.55 342.07,-139.75"/>
<polygon fill="black" stroke="black" points="258.78,-183.56 251.85,-191.57 262.27,-189.63 258.78,-183.56"/>
</g>
<!-- 34&#45;&gt;32 -->
<g id="edge13" class="edge">
<title>34&#45;&gt;32</title>
<path fill="none" stroke="black" d="M549.94,-190.22C503.83,-174.12 435.61,-150.3 396.51,-136.65"/>
<polygon fill="black" stroke="black" points="548.83,-193.54 559.43,-193.53 551.14,-186.93 548.83,-193.54"/>
</g>
<!-- 35&#45;&gt;23 -->
<g id="edge8" class="edge">
<title>35&#45;&gt;23</title>
<path fill="none" stroke="black" d="M94.27,-187.07C115.29,-173.23 142.93,-155.02 162.56,-142.1"/>
<polygon fill="black" stroke="black" points="92.13,-184.28 85.71,-192.71 95.98,-190.13 92.13,-184.28"/>
</g>
<!-- 36&#45;&gt;23 -->
<g id="edge9" class="edge">
<title>36&#45;&gt;23</title>
<path fill="none" stroke="black" d="M108.3,-267.4C111.19,-264.14 113.86,-260.64 116,-257 133.43,-227.36 118.57,-212.21 135,-182 143.24,-166.85 156.52,-152.65 167.6,-142.33"/>
<polygon fill="black" stroke="black" points="105.79,-264.96 101.26,-274.54 110.77,-269.88 105.79,-264.96"/>
</g>
<!-- 36&#45;&gt;35 -->
<g id="edge16" class="edge">
<title>36&#45;&gt;35</title>
<path fill="none" stroke="black" d="M75.28,-262.77C72.74,-250.66 69.83,-236.78 67.6,-226.15"/>
<polygon fill="black" stroke="black" points="71.92,-263.75 77.39,-272.82 78.77,-262.32 71.92,-263.75"/>
</g>
<!-- 0 -->
<g id="node1" class="node">
<title>0</title>
<polygon fill="#ffffff" fill-opacity="0.811765" stroke="black" stroke-dasharray="5,2" points="420.34,-200.54 420.34,-215.46 388.51,-226 343.49,-226 311.66,-215.46 311.66,-200.54 343.49,-190 388.51,-190 420.34,-200.54"/>
<text text-anchor="middle" x="366" y="-204.3" font-family="Times,serif" font-size="14.00">AppConfig</text>
</g>
<!-- 11 -->
<g id="node2" class="node">
<title>11</title>
<polygon fill="#ffffff" fill-opacity="0.811765" stroke="black" stroke-dasharray="5,2" points="288.13,-283.54 288.13,-298.46 251.15,-309 198.85,-309 161.87,-298.46 161.87,-283.54 198.85,-273 251.15,-273 288.13,-283.54"/>
<text text-anchor="middle" x="225" y="-287.3" font-family="Times,serif" font-size="14.00">DebugConfig</text>
</g>
<!-- 16 -->
<g id="node3" class="node">
<title>16</title>
<polygon fill="#ffffff" fill-opacity="0.811765" stroke="black" stroke-dasharray="5,2" points="541.94,-283.54 541.94,-298.46 503.9,-309 450.1,-309 412.06,-298.46 412.06,-283.54 450.1,-273 503.9,-273 541.94,-283.54"/>
<text text-anchor="middle" x="477" y="-287.3" font-family="Times,serif" font-size="14.00">OutputConfig</text>
</g>
<!-- 21 -->
<g id="node4" class="node">
<title>21</title>
<ellipse fill="#ffffff" fill-opacity="0.811765" stroke="black" cx="298" cy="-42" rx="28.7" ry="18"/>
<text text-anchor="middle" x="298" y="-38.3" font-family="Times,serif" font-size="14.00">main</text>
</g>
<!-- 23 -->
<g id="node5" class="node">
<title>23</title>
<ellipse fill="#ffffff" fill-opacity="0.811765" stroke="black" cx="187" cy="-125" rx="70.69" ry="18"/>
<text text-anchor="middle" x="187" y="-121.3" font-family="Times,serif" font-size="14.00">mainWithConfig</text>
</g>
<!-- 29 -->
<g id="node6" class="node">
<title>29</title>
<ellipse fill="#ffffff" fill-opacity="0.811765" stroke="black" stroke-dasharray="5,2" cx="477" cy="-208" rx="33.29" ry="18"/>
<text text-anchor="middle" x="477" y="-204.3" font-family="Times,serif" font-size="14.00">output</text>
</g>
<!-- 32 -->
<g id="node7" class="node">
<title>32</title>
<ellipse fill="#ffffff" fill-opacity="0.811765" stroke="black" stroke-dasharray="5,2" cx="366" cy="-125" rx="39.79" ry="18"/>
<text text-anchor="middle" x="366" y="-121.3" font-family="Times,serif" font-size="14.00">pConfig</text>
</g>
<!-- 33 -->
<g id="node8" class="node">
<title>33</title>
<ellipse fill="#ffffff" fill-opacity="0.811765" stroke="black" stroke-dasharray="5,2" cx="225" cy="-208" rx="63.09" ry="18"/>
<text text-anchor="middle" x="225" y="-204.3" font-family="Times,serif" font-size="14.00">pDebugConfig</text>
</g>
<!-- 34 -->
<g id="node9" class="node">
<title>34</title>
<ellipse fill="#ffffff" fill-opacity="0.811765" stroke="black" stroke-dasharray="5,2" cx="598" cy="-208" rx="63.89" ry="18"/>
<text text-anchor="middle" x="598" y="-204.3" font-family="Times,serif" font-size="14.00">pOutputConfig</text>
</g>
<!-- 35 -->
<g id="node10" class="node">
<title>35</title>
<ellipse fill="#ffffff" fill-opacity="0.811765" stroke="black" stroke-dasharray="5,2" cx="64" cy="-208" rx="40.09" ry="18"/>
<text text-anchor="middle" x="64" y="-204.3" font-family="Times,serif" font-size="14.00">printDie</text>
</g>
<!-- 36 -->
<g id="node11" class="node">
<title>36</title>
<ellipse fill="#ffffff" fill-opacity="0.811765" stroke="black" stroke-dasharray="5,2" cx="81" cy="-291" rx="48.99" ry="18"/>
<text text-anchor="middle" x="81" y="-287.3" font-family="Times,serif" font-size="14.00">printStderr</text>
</g>
</g>
</svg>
